<svg width="31" height="31" viewBox="0 0 31 31" fill="none" xmlns="http://www.w3.org/2000/svg">
<path d="M23.2778 23.2775H26.3889C27.214 23.2775 28.0053 22.9497 28.5888 22.3662C29.1722 21.7828 29.5 20.9915 29.5 20.1663V13.9441C29.5 13.119 29.1722 12.3277 28.5888 11.7442C28.0053 11.1608 27.214 10.833 26.3889 10.833H4.61111C3.78599 10.833 2.99467 11.1608 2.41122 11.7442C1.82778 12.3277 1.5 13.119 1.5 13.9441V20.1663C1.5 20.9915 1.82778 21.7828 2.41122 22.3662C2.99467 22.9497 3.78599 23.2775 4.61111 23.2775H7.72222" stroke="white" stroke-width="3" stroke-linecap="round" stroke-linejoin="round"/>
<path d="M23.2782 10.8333V4.61111C23.2782 3.78599 22.9504 2.99467 22.367 2.41122C21.7835 1.82778 20.9922 1.5 20.1671 1.5H10.8338C10.0086 1.5 9.21733 1.82778 8.63388 2.41122C8.05043 2.99467 7.72266 3.78599 7.72266 4.61111V10.8333" stroke="white" stroke-width="3" stroke-linecap="round" stroke-linejoin="round"/>
<path d="M7.72266 20.1668C7.72266 19.3417 8.05043 18.5503 8.63388 17.9669C9.21733 17.3834 10.0086 17.0557 10.8338 17.0557H20.1671C20.9922 17.0557 21.7835 17.3834 22.367 17.9669C22.9504 18.5503 23.2782 19.3417 23.2782 20.1668V26.389C23.2782 27.2141 22.9504 28.0054 22.367 28.5889C21.7835 29.1723 20.9922 29.5001 20.1671 29.5001H10.8338C10.0086 29.5001 9.21733 29.1723 8.63388 28.5889C8.05043 28.0054 7.72266 27.2141 7.72266 26.389V20.1668Z" stroke="white" stroke-width="3" stroke-linecap="round" stroke-linejoin="round"/>
</svg>
