<svg width="31" height="31" viewBox="0 0 31 31" fill="none" xmlns="http://www.w3.org/2000/svg">
<path d="M23.2778 23.2778H26.3889C27.214 23.2778 28.0053 22.95 28.5888 22.3666C29.1722 21.7831 29.5 20.9918 29.5 20.1667V13.9445C29.5 13.1194 29.1722 12.328 28.5888 11.7446C28.0053 11.1612 27.214 10.8334 26.3889 10.8334H4.61111C3.78599 10.8334 2.99467 11.1612 2.41122 11.7446C1.82778 12.328 1.5 13.1194 1.5 13.9445V20.1667C1.5 20.9918 1.82778 21.7831 2.41122 22.3666C2.99467 22.95 3.78599 23.2778 4.61111 23.2778H7.72222" stroke="white" stroke-width="3" stroke-linecap="round" stroke-linejoin="round"/>
<path d="M23.2777 10.8333V4.61111C23.2777 3.78599 22.9499 2.99467 22.3665 2.41122C21.7831 1.82778 20.9917 1.5 20.1666 1.5H10.8333C10.0082 1.5 9.21684 1.82778 8.63339 2.41122C8.04994 2.99467 7.72217 3.78599 7.72217 4.61111V10.8333" stroke="white" stroke-width="3" stroke-linecap="round" stroke-linejoin="round"/>
<path d="M7.72217 20.1667C7.72217 19.3415 8.04994 18.5502 8.63339 17.9668C9.21684 17.3833 10.0082 17.0555 10.8333 17.0555H20.1666C20.9917 17.0555 21.7831 17.3833 22.3665 17.9668C22.9499 18.5502 23.2777 19.3415 23.2777 20.1667V26.3889C23.2777 27.214 22.9499 28.0053 22.3665 28.5888C21.7831 29.1722 20.9917 29.5 20.1666 29.5H10.8333C10.0082 29.5 9.21684 29.1722 8.63339 28.5888C8.04994 28.0053 7.72217 27.214 7.72217 26.3889V20.1667Z" stroke="white" stroke-width="3" stroke-linecap="round" stroke-linejoin="round"/>
</svg>
