<svg width="31" height="31" viewBox="0 0 31 31" fill="none" xmlns="http://www.w3.org/2000/svg">
<path d="M7.78338 12.397H12.397V7.78338L7.01445 2.40087C8.73628 1.57853 10.6707 1.31022 12.5514 1.63289C14.432 1.95556 16.1664 2.85333 17.5156 4.20258C18.8649 5.55183 19.7626 7.28619 20.0853 9.16684C20.408 11.0475 20.1397 12.9819 19.3173 14.7038L28.5445 23.9309C29.1563 24.5427 29.5 25.3725 29.5 26.2377C29.5 27.1029 29.1563 27.9327 28.5445 28.5445C27.9327 29.1563 27.1029 29.5 26.2377 29.5C25.3725 29.5 24.5427 29.1563 23.9309 28.5445L14.7038 19.3173C12.9819 20.1397 11.0475 20.408 9.16684 20.0853C7.28619 19.7626 5.55183 18.8649 4.20258 17.5156C2.85333 16.1664 1.95556 14.432 1.63289 12.5514C1.31022 10.6707 1.57853 8.73628 2.40087 7.01445L7.78338 12.397Z" stroke="white" stroke-width="3" stroke-linecap="round" stroke-linejoin="round"/>
</svg>
