<svg width="28" height="31" viewBox="0 0 28 31" fill="none" xmlns="http://www.w3.org/2000/svg">
<path d="M9.07373 13.618C9.07373 14.8232 9.5525 15.9791 10.4047 16.8313C11.2569 17.6835 12.4128 18.1623 13.618 18.1623C14.8232 18.1623 15.9791 17.6835 16.8313 16.8313C17.6835 15.9791 18.1623 14.8232 18.1623 13.618C18.1623 12.4128 17.6835 11.2569 16.8313 10.4047C15.9791 9.5525 14.8232 9.07373 13.618 9.07373C12.4128 9.07373 11.2569 9.5525 10.4047 10.4047C9.5525 11.2569 9.07373 12.4128 9.07373 13.618Z" stroke="white" stroke-width="3" stroke-linecap="round" stroke-linejoin="round"/>
<path d="M22.1871 22.1866L15.76 28.6138C15.1919 29.1812 14.4218 29.5 13.6188 29.5C12.8159 29.5 12.0458 29.1812 11.4777 28.6138L5.04909 22.1866C3.35441 20.4919 2.20033 18.3326 1.73281 15.982C1.26528 13.6313 1.50529 11.1948 2.4225 8.98055C3.33971 6.76629 4.89291 4.87374 6.8857 3.54222C8.8785 2.2107 11.2214 1.5 13.6181 1.5C16.0148 1.5 18.3577 2.2107 20.3505 3.54222C22.3433 4.87374 23.8965 6.76629 24.8137 8.98055C25.7309 11.1948 25.9709 13.6313 25.5034 15.982C25.0358 18.3326 23.8818 20.4919 22.1871 22.1866Z" stroke="white" stroke-width="3" stroke-linecap="round" stroke-linejoin="round"/>
</svg>
