<svg width="20" height="19" viewBox="0 0 20 19" fill="none" xmlns="http://www.w3.org/2000/svg">
<path fill-rule="evenodd" clip-rule="evenodd" d="M1.49061 1.17275C2.53758 -0.292994 4.64209 -0.424655 5.81648 1.00361C5.91551 1.12405 6.01533 1.24557 6.11516 1.36708C6.98762 2.42912 7.85965 3.49063 8.19488 3.82587C8.51921 4.1502 8.58119 4.65364 8.3452 5.04695L6.50885 8.10753C6.62655 8.30013 6.78603 8.52996 6.99004 8.79209C7.35386 9.25955 7.81872 9.7785 8.33714 10.2969C9.21018 11.1699 10.1876 11.9943 11.0289 12.5514L14.0419 10.7436C14.4088 10.5234 14.8751 10.5613 15.2018 10.8377L18.1091 13.2977C19.4623 14.4427 19.3756 16.5556 17.9332 17.5859C15.7088 19.1748 12.7191 19.5527 10.2697 18.0577C8.58109 17.0272 6.51196 15.5722 4.66086 13.7211C2.9866 12.0469 1.75483 10.3129 0.885421 8.85528C-0.605598 6.35558 -0.0849799 3.37858 1.49061 1.17275ZM4.2723 2.2733C3.96333 1.89754 3.42795 1.89995 3.11739 2.33473C1.88157 4.06488 1.61554 6.1768 2.60234 7.83117C3.40531 9.17737 4.5397 10.7728 6.07447 12.3075C7.77808 14.0111 9.70692 15.3722 11.3112 16.3513C12.9642 17.3602 15.0847 17.1638 16.7712 15.9592C17.1531 15.6864 17.1761 15.127 16.8178 14.8238L14.4568 12.826L11.5364 14.5783C11.2272 14.7638 10.8421 14.7684 10.5285 14.5903C9.3807 13.9386 8.03909 12.8261 6.92353 11.7105C6.3603 11.1473 5.83762 10.5663 5.4124 10.0199C4.99901 9.48879 4.63315 8.93423 4.43644 8.42998C4.324 8.14176 4.35136 7.81771 4.51053 7.55242L6.24993 4.65343C5.78335 4.11363 5.16346 3.35858 4.59046 2.66065C4.48229 2.52888 4.37578 2.39916 4.2723 2.2733Z" fill="#DC2022"/>
</svg>
