<svg width="31" height="31" viewBox="0 0 31 31" fill="none" xmlns="http://www.w3.org/2000/svg">
<path d="M14.4611 28.0262H4.44737C3.66568 28.0262 2.916 27.7157 2.36326 27.1629C1.81053 26.6102 1.5 25.8605 1.5 25.0788V7.39463C1.5 6.61294 1.81053 5.86327 2.36326 5.31053C2.916 4.75779 3.66568 4.44727 4.44737 4.44727H22.1316C22.9133 4.44727 23.6629 4.75779 24.2157 5.31053C24.7684 5.86327 25.0789 6.61294 25.0789 7.39463V13.2894" stroke="white" stroke-width="3" stroke-linecap="round" stroke-linejoin="round"/>
<path d="M23.6055 17.7109V23.6057H29.5002" stroke="white" stroke-width="3" stroke-linecap="round" stroke-linejoin="round"/>
<path d="M17.7109 23.6057C17.7109 25.1691 18.332 26.6684 19.4375 27.7739C20.5429 28.8794 22.0423 29.5004 23.6057 29.5004C25.1691 29.5004 26.6684 28.8794 27.7739 27.7739C28.8794 26.6684 29.5004 25.1691 29.5004 23.6057C29.5004 22.0423 28.8794 20.5429 27.7739 19.4375C26.6684 18.332 25.1691 17.7109 23.6057 17.7109C22.0423 17.7109 20.5429 18.332 19.4375 19.4375C18.332 20.5429 17.7109 22.0423 17.7109 23.6057Z" stroke="white" stroke-width="3" stroke-linecap="round" stroke-linejoin="round"/>
<path d="M19.1836 1.5V7.39474" stroke="white" stroke-width="3" stroke-linecap="round" stroke-linejoin="round"/>
<path d="M7.39453 1.5V7.39474" stroke="white" stroke-width="3" stroke-linecap="round" stroke-linejoin="round"/>
<path d="M1.5 13.2891H25.0789" stroke="white" stroke-width="3" stroke-linecap="round" stroke-linejoin="round"/>
</svg>
