<svg width="23" height="12" viewBox="0 0 23 12" fill="none" xmlns="http://www.w3.org/2000/svg">
<path d="M21.4995 5.94434L8.16618 5.94434" stroke="#181516" stroke-width="3" stroke-linecap="round" stroke-linejoin="round"/>
<path d="M17.0551 10.3888L21.4995 5.94434" stroke="#181516" stroke-width="3" stroke-linecap="round" stroke-linejoin="round"/>
<path d="M17.0551 1.5L21.4995 5.94444" stroke="#181516" stroke-width="3" stroke-linecap="round" stroke-linejoin="round"/>
<path d="M2.61106 4.83301C2.31637 4.83301 2.03376 4.95007 1.82538 5.15844C1.61701 5.36682 1.49995 5.64943 1.49995 5.94412C1.49995 6.2388 1.61701 6.52142 1.82538 6.72979C2.03376 6.93817 2.31637 7.05523 2.61106 7.05523C2.90574 7.05523 3.18836 6.93817 3.39673 6.72979C3.60511 6.52142 3.72217 6.2388 3.72217 5.94412C3.72217 5.64943 3.60511 5.36682 3.39673 5.15844C3.18836 4.95007 2.90574 4.83301 2.61106 4.83301Z" stroke="#DC2022" stroke-width="3" stroke-linecap="round" stroke-linejoin="round"/>
</svg>
