<svg width="30" height="30" viewBox="0 0 30 30" fill="none" xmlns="http://www.w3.org/2000/svg">
<path d="M7.55897 12.0078H12.0078V7.55897L6.8175 2.36869C8.47784 1.57573 10.3432 1.317 12.1567 1.62815C13.9701 1.93929 15.6426 2.805 16.9436 4.10606C18.2447 5.40712 19.1104 7.07954 19.4215 8.89302C19.7327 10.7065 19.474 12.5718 18.681 14.2322L27.5786 23.1298C28.1686 23.7198 28.5 24.5199 28.5 25.3542C28.5 26.1885 28.1686 26.9887 27.5786 27.5786C26.9887 28.1686 26.1885 28.5 25.3542 28.5C24.5199 28.5 23.7198 28.1686 23.1298 27.5786L14.2322 18.681C12.5718 19.474 10.7065 19.7327 8.89302 19.4215C7.07954 19.1104 5.40712 18.2447 4.10606 16.9436C2.805 15.6426 1.93929 13.9701 1.62815 12.1567C1.317 10.3432 1.57573 8.47784 2.36869 6.8175L7.55897 12.0078Z" stroke="white" stroke-width="3" stroke-linecap="round" stroke-linejoin="round"/>
</svg>
