<svg width="29" height="31" viewBox="0 0 29 31" fill="none" xmlns="http://www.w3.org/2000/svg">
<path d="M26.7 21.1119V9.8867C26.6991 9.3982 26.5692 8.9186 26.3234 8.49647C26.0775 8.07434 25.7245 7.72468 25.3 7.4829L15.5 1.8717C15.0736 1.62812 14.5911 1.5 14.1 1.5C13.6089 1.5 13.1264 1.62812 12.7 1.8717L2.9 7.4829C2.0334 7.9799 1.5 8.8969 1.5 9.8881V21.1133C1.5 22.1059 2.0334 23.0215 2.9 23.5171L12.7 29.1283C13.1264 29.3719 13.6089 29.5 14.1 29.5C14.5911 29.5 15.0736 29.3719 15.5 29.1283L25.3 23.5171C26.1666 23.0201 26.7 22.1031 26.7 21.1119Z" stroke="white" stroke-width="3" stroke-linecap="round" stroke-linejoin="round"/>
<path d="M14.0996 29.5V15.5" stroke="white" stroke-width="3" stroke-linecap="round" stroke-linejoin="round"/>
<path d="M14.0996 15.5013L26.3216 8.44531" stroke="white" stroke-width="3" stroke-linecap="round" stroke-linejoin="round"/>
<path d="M1.88281 8.44531L14.1048 15.5013" stroke="white" stroke-width="3" stroke-linecap="round" stroke-linejoin="round"/>
</svg>
