<svg width="30" height="23" viewBox="0 0 30 23" fill="none" xmlns="http://www.w3.org/2000/svg">
<path fill-rule="evenodd" clip-rule="evenodd" d="M10 0C9.37794 0 8.85054 0.457412 8.76257 1.07322L7.51257 9.82322C7.46132 10.1819 7.56826 10.5452 7.80569 10.819C8.04311 11.0927 8.38764 11.25 8.75 11.25H2.6389C2.02419 11.25 1.50072 11.6969 1.40435 12.304L0.0154646 21.054C-0.0418733 21.4153 0.0618749 21.7835 0.299365 22.0616C0.536854 22.3398 0.884257 22.5 1.25001 22.5H13.75C14.1158 22.5 14.4632 22.3398 14.7006 22.0616C14.8944 21.8347 14.9991 21.5479 15 21.2539C15.0009 21.5479 15.1056 21.8347 15.2994 22.0616C15.5368 22.3398 15.8842 22.5 16.25 22.5H28.75C29.1157 22.5 29.4631 22.3398 29.7006 22.0616C29.9381 21.7835 30.0419 21.4153 29.9845 21.054L28.5956 12.304C28.4993 11.6969 27.9758 11.25 27.3611 11.25H21.25C21.6124 11.25 21.9569 11.0927 22.1943 10.819C22.4317 10.5452 22.5387 10.1819 22.4874 9.82322L21.2374 1.07322C21.1495 0.457412 20.6221 0 20 0H10ZM17.6389 11.25H12.3611C12.9758 11.25 13.4993 11.6969 13.5957 12.304L14.9845 21.054C14.9947 21.118 14.9998 21.1822 15 21.2461C15.0002 21.1822 15.0053 21.118 15.0155 21.054L16.4043 12.304C16.5007 11.6969 17.0242 11.25 17.6389 11.25ZM10.1913 8.74999L11.0841 2.5H18.9159L19.8087 8.74999H10.1913ZM3.70613 13.75L2.71407 20H12.2859L11.2939 13.75H3.70613ZM18.7061 13.75L17.7141 20H27.2859L26.2939 13.75H18.7061Z" fill="white"/>
</svg>
