<svg width="25" height="31" viewBox="0 0 25 31" fill="none" xmlns="http://www.w3.org/2000/svg">
<path d="M3.05418 29.5H21.7044C22.1166 29.5 22.5119 29.3362 22.8034 29.0448C23.0949 28.7533 23.2585 28.358 23.2585 27.9458V23.0035C22.4328 23.3069 21.5371 23.3662 20.6785 23.1745C19.5539 22.9272 18.5604 22.2726 17.8897 21.3366C17.2189 20.4005 16.9182 19.2494 17.0456 18.1049C17.173 16.9604 17.7195 15.9036 18.5797 15.138C19.4398 14.3723 20.5528 13.9521 21.7044 13.9582C22.2352 13.9548 22.7622 14.0496 23.2585 14.2379V9.29564C23.2585 8.88345 23.0949 8.48816 22.8034 8.19669C22.5119 7.90523 22.1166 7.74146 21.7044 7.74146H16.762C17.0653 6.91569 17.1248 6.02013 16.9331 5.16156C16.6859 4.03687 16.0311 3.04344 15.0951 2.37268C14.1591 1.70192 13.0079 1.40124 11.8634 1.52862C10.7189 1.656 9.66203 2.20235 8.8964 3.0625C8.13077 3.92266 7.71062 5.03575 7.71673 6.18728C7.71335 6.71816 7.80828 7.24508 7.99656 7.74146H3.05418C2.64199 7.74146 2.2466 7.90523 1.95514 8.19669C1.66367 8.48816 1.5 8.88345 1.5 9.29564V27.9458C1.5 28.358 1.66367 28.7533 1.95514 29.0448C2.2466 29.3362 2.64199 29.5 3.05418 29.5Z" stroke="white" stroke-width="3" stroke-linecap="round" stroke-linejoin="round"/>
</svg>
