<svg width="28" height="30" viewBox="0 0 28 30" fill="none" xmlns="http://www.w3.org/2000/svg">
<path fill-rule="evenodd" clip-rule="evenodd" d="M6.07112 7.62448C3.98079 10.5766 2.72727 14.2435 2.72727 17.1104C2.72727 18.2373 3.00578 18.9969 3.41771 19.5444C3.83892 20.1041 4.49093 20.5627 5.43804 20.9187C7.12785 21.5539 9.46728 21.7628 12.2727 21.808V18.2921L7.8994 13.9188C7.36687 13.3862 7.36687 12.5228 7.8994 11.9903C8.43193 11.4578 9.29534 11.4578 9.82787 11.9903L12.2727 14.4352V8.18182C12.2727 7.4287 12.8832 6.81818 13.6364 6.81818C14.3895 6.81818 15 7.4287 15 8.18182V14.4352L17.4449 11.9903C17.9774 11.4578 18.8408 11.4578 19.3733 11.9903C19.9059 12.5228 19.9059 13.3862 19.3733 13.9188L15 18.2921V21.808C17.8054 21.7628 20.1449 21.5539 21.8347 20.9187C22.7818 20.5627 23.4338 20.1041 23.855 19.5444C24.2669 18.9969 24.5455 18.2373 24.5455 17.1104C24.5455 14.2435 23.2919 10.5766 21.2016 7.62448C19.0935 4.64732 16.3832 2.72727 13.6364 2.72727C10.8895 2.72727 8.17922 4.64732 6.07112 7.62448ZM15 24.5361C17.8828 24.493 20.6462 24.2791 22.7943 23.4716C24.0681 22.9928 25.2134 22.275 26.0343 21.1842C26.8644 20.0809 27.2727 18.7156 27.2727 17.1104C27.2727 13.5758 25.7789 9.36936 23.4274 6.04843C21.0936 2.75259 17.6676 0 13.6364 0C9.60516 0 6.1791 2.75259 3.84535 6.04843C1.49383 9.36936 0 13.5758 0 17.1104C0 18.7156 0.408327 20.0809 1.23847 21.1842C2.05933 22.275 3.20462 22.9928 4.47843 23.4716C6.62655 24.2791 9.38994 24.493 12.2727 24.5361V27.2727H8.18182C7.4287 27.2727 6.81818 27.8832 6.81818 28.6364C6.81818 29.3895 7.4287 30 8.18182 30H19.0909C19.844 30 20.4545 29.3895 20.4545 28.6364C20.4545 27.8832 19.844 27.2727 19.0909 27.2727H15V24.5361Z" fill="white"/>
</svg>
