<svg width="30" height="23" viewBox="0 0 30 23" fill="none" xmlns="http://www.w3.org/2000/svg">
<path d="M7.5 15C6.80964 15 6.25 15.5596 6.25 16.25C6.25 16.9404 6.80964 17.5 7.5 17.5H8.75C9.44036 17.5 10 16.9404 10 16.25C10 15.5596 9.44036 15 8.75 15H7.5Z" fill="white"/>
<path d="M13.75 15C13.0596 15 12.5 15.5596 12.5 16.25C12.5 16.9404 13.0596 17.5 13.75 17.5H18.75C19.4404 17.5 20 16.9404 20 16.25C20 15.5596 19.4404 15 18.75 15H13.75Z" fill="white"/>
<path fill-rule="evenodd" clip-rule="evenodd" d="M0 3.75C0 1.67893 1.67893 0 3.75 0H26.25C28.3211 0 30 1.67893 30 3.75V18.75C30 20.8211 28.3211 22.5 26.25 22.5H3.75C1.67893 22.5 0 20.8211 0 18.75V3.75ZM3.75 2.5C3.05964 2.5 2.5 3.05964 2.5 3.75V6.25H27.5V3.75C27.5 3.05964 26.9404 2.5 26.25 2.5H3.75ZM27.5 8.75H2.5V18.75C2.5 19.4404 3.05964 20 3.75 20H26.25C26.9404 20 27.5 19.4404 27.5 18.75V8.75Z" fill="white"/>
</svg>
