<svg width="28" height="28" viewBox="0 0 28 28" fill="none" xmlns="http://www.w3.org/2000/svg">
<path fill-rule="evenodd" clip-rule="evenodd" d="M8.90909 3.81818C8.90909 1.70946 10.6185 0 12.7273 0H24.1818C26.2905 0 28 1.70946 28 3.81818V24.1818C28 26.2905 26.2905 28 24.1818 28H12.7273C10.6185 28 8.90909 26.2905 8.90909 24.1818V19.0909H1.27273C0.569819 19.0909 0 18.5211 0 17.8182V6.36364C0 5.66073 0.569819 5.09091 1.27273 5.09091H8.90909V3.81818ZM2.54545 11.4545V16.5455H16.5455V11.4545L2.54545 11.4545ZM16.5455 8.90909L2.54545 8.90909V7.63636H16.5455V8.90909ZM19.0909 17.8182C19.0909 18.5211 18.5211 19.0909 17.8182 19.0909H11.4545V24.1818C11.4545 24.8847 12.0244 25.4545 12.7273 25.4545H24.1818C24.8847 25.4545 25.4545 24.8847 25.4545 24.1818V3.81818C25.4545 3.11527 24.8847 2.54545 24.1818 2.54545H12.7273C12.0244 2.54545 11.4545 3.11527 11.4545 3.81818V5.09091H17.8182C18.5211 5.09091 19.0909 5.66073 19.0909 6.36364V17.8182Z" fill="white"/>
</svg>
