<svg width="30" height="20" viewBox="0 0 30 20" fill="none" xmlns="http://www.w3.org/2000/svg">
<path fill-rule="evenodd" clip-rule="evenodd" d="M20 10C20 12.7614 17.7614 15 15 15C12.2386 15 10 12.7614 10 10C10 7.23858 12.2386 5 15 5C17.7614 5 20 7.23858 20 10ZM17.5 10C17.5 11.3807 16.3807 12.5 15 12.5C13.6193 12.5 12.5 11.3807 12.5 10C12.5 8.61929 13.6193 7.5 15 7.5C16.3807 7.5 17.5 8.61929 17.5 10Z" fill="white"/>
<path fill-rule="evenodd" clip-rule="evenodd" d="M1.25 0C0.559644 0 0 0.559644 0 1.25V18.75C0 19.4404 0.559644 20 1.25 20H28.75C29.4404 20 30 19.4404 30 18.75V1.25C30 0.559644 29.4404 0 28.75 0H1.25ZM2.5 12.5L2.5 7.5C5.26142 7.5 7.5 5.26142 7.5 2.5H22.5C22.5 5.26142 24.7386 7.5 27.5 7.5V12.5C24.7386 12.5 22.5 14.7386 22.5 17.5H7.5C7.5 14.7386 5.26142 12.5 2.5 12.5ZM2.5 15L2.5 17.5H5C5 16.1193 3.88071 15 2.5 15ZM27.5 5C26.1193 5 25 3.88071 25 2.5H27.5V5ZM25 17.5H27.5V15C26.1193 15 25 16.1193 25 17.5ZM5 2.5C5 3.88071 3.88071 5 2.5 5V2.5H5Z" fill="white"/>
</svg>
