<svg width="27" height="30" viewBox="0 0 27 30" fill="none" xmlns="http://www.w3.org/2000/svg">
<path fill-rule="evenodd" clip-rule="evenodd" d="M13.5211 8.75001C10.0694 8.75001 7.27113 11.5482 7.27113 15C7.27113 18.4518 10.0694 21.25 13.5211 21.25C16.9729 21.25 19.7711 18.4518 19.7711 15C19.7711 11.5482 16.9729 8.75001 13.5211 8.75001ZM9.77113 15C9.77113 12.929 11.4501 11.25 13.5211 11.25C15.5922 11.25 17.2711 12.929 17.2711 15C17.2711 17.0711 15.5922 18.75 13.5211 18.75C11.4501 18.75 9.77113 17.0711 9.77113 15Z" fill="#181516"/>
<path fill-rule="evenodd" clip-rule="evenodd" d="M13.5209 0C11.4498 0 9.77091 1.67893 9.77091 3.75001V4.39051C8.45337 4.8562 7.24932 5.55984 6.21015 6.44902L5.65303 6.12736C3.85943 5.09183 1.56596 5.70636 0.530429 7.49996C-0.505107 9.29356 0.109426 11.587 1.90303 12.6226L2.45868 12.9434C2.33528 13.6109 2.2709 14.2984 2.2709 15C2.2709 15.7071 2.33628 16.3998 2.46156 17.0722L1.89825 17.39C0.0910535 18.4096 -0.53699 20.7079 0.50051 22.5049C1.53471 24.2962 3.82878 24.9042 5.61447 23.8604L6.18323 23.5279C7.2271 24.4268 8.43871 25.1379 9.76554 25.6076L9.76021 26.2173C9.74196 28.301 11.4261 30 13.51 30C15.5682 30 17.2417 28.341 17.2597 26.2829L17.2656 25.6114C18.5843 25.1461 19.7894 24.4424 20.8294 23.5529L21.3472 23.8549C23.1418 24.9016 25.4453 24.2898 26.484 22.4906C27.5163 20.7026 26.9092 18.4165 25.1257 17.3763L24.5826 17.0596C24.7064 16.3911 24.7709 15.7027 24.7709 15C24.7709 14.2974 24.7064 13.609 24.5826 12.9406L25.1258 12.6238C26.9092 11.5836 27.5163 9.29752 26.484 7.50953C25.4452 5.71034 23.1417 5.09855 21.3471 6.14527L20.8295 6.44716C19.7908 5.55886 18.5875 4.85587 17.2709 4.39051V3.75001C17.2709 1.67893 15.592 0 13.5209 0ZM12.2709 3.75001C12.2709 3.05965 12.8306 2.5 13.5209 2.5C14.2113 2.5 14.7709 3.05965 14.7709 3.75001V5.31505C14.7709 5.88541 15.157 6.38343 15.7093 6.5256C17.2719 6.92778 18.6675 7.75195 19.7664 8.87169C20.1692 9.28208 20.7999 9.36478 21.2949 9.0721L21.561 8.9147L21.5675 8.91089L22.6067 8.30478C23.2049 7.95588 23.9727 8.15981 24.3189 8.75953C24.663 9.35552 24.4607 10.1175 23.8662 10.4643L22.82 11.0745L22.5635 11.2125C22.0491 11.4893 21.795 12.0855 21.9516 12.6483C22.1594 13.3952 22.2709 14.1836 22.2709 15C22.2709 15.8151 22.1598 16.6023 21.9526 17.3481C21.798 17.9046 22.0449 18.4946 22.5497 18.7752L22.8126 18.9214L23.8662 19.5358C24.4607 19.8826 24.663 20.6446 24.319 21.2406C23.9727 21.8403 23.2049 22.0442 22.6067 21.6954L21.561 21.0855C21.5503 21.0792 21.5396 21.0732 21.5287 21.0673L21.2478 20.9144C20.7578 20.6477 20.1504 20.738 19.7592 21.1357C18.6614 22.2517 17.2685 23.0731 15.7093 23.4744C15.157 23.6166 14.7709 24.1146 14.7709 24.685V24.9945L14.7598 26.261C14.7538 26.947 14.196 27.5 13.51 27.5C12.8154 27.5 12.254 26.9337 12.2601 26.2391L12.2709 25.011V24.685C12.2709 24.1146 11.8848 23.6166 11.3325 23.4744C9.75932 23.0695 8.35543 22.2369 7.25318 21.1056C6.85239 20.6943 6.22286 20.6089 5.72704 20.8988L4.3528 21.7021C3.76366 22.0465 3.00679 21.8459 2.66558 21.2549C2.32328 20.662 2.53049 19.9038 3.12673 19.5674L4.50429 18.7901C5.00556 18.5073 5.24893 17.9188 5.09378 17.3645C4.88366 16.6138 4.7709 15.8211 4.7709 15C4.7709 14.1873 4.88137 13.4024 5.08738 12.6585C5.2385 12.1129 5.004 11.5338 4.51581 11.2471L4.24366 11.0872L3.15303 10.4575C2.55516 10.1123 2.35032 9.34783 2.6955 8.74996C3.04067 8.1521 3.80516 7.94725 4.40303 8.29243L5.46507 8.9056L5.71149 9.0606C6.20941 9.37379 6.85832 9.29745 7.26996 8.87725C8.36967 7.75468 9.7673 6.92845 11.3325 6.5256C11.8848 6.38343 12.2709 5.88541 12.2709 5.31505V3.75001Z" fill="#181516"/>
</svg>
