<svg width="33" height="27" viewBox="0 0 33 27" fill="none" xmlns="http://www.w3.org/2000/svg">
<path d="M4.65797 25.1848L9.01124 13.5777C9.12403 13.2767 9.32596 13.0174 9.59005 12.8343C9.85413 12.6512 10.1678 12.553 10.4892 12.5529H29.9217M4.65797 25.1848H26.8048C27.5395 25.1846 28.2511 24.9283 28.8171 24.4599C29.3832 23.9916 29.7682 23.3406 29.906 22.6189L31.4786 14.3908C31.5162 14.1647 31.5041 13.9332 31.4432 13.7122C31.3823 13.4912 31.274 13.2862 31.1258 13.1113C30.9777 12.9364 30.7932 12.7959 30.5853 12.6994C30.3774 12.603 30.1509 12.553 29.9217 12.5529M4.65797 25.1848C3.82043 25.1848 3.01718 24.8521 2.42495 24.2598C1.83271 23.6676 1.5 22.8644 1.5 22.0268V4.65797C1.5 3.82043 1.83271 3.01718 2.42495 2.42495C3.01718 1.83271 3.82043 1.5 4.65797 1.5H10.9739L15.7109 6.23696H26.7638C27.6013 6.23696 28.4046 6.56967 28.9968 7.1619C29.589 7.75414 29.9217 8.55738 29.9217 9.39493V12.5529" stroke="#181516" stroke-width="3" stroke-linecap="round" stroke-linejoin="round"/>
</svg>
