<svg width="28" height="30" viewBox="0 0 28 30" fill="none" xmlns="http://www.w3.org/2000/svg">
<path d="M21.5748 11.8109C22.1112 11.2745 22.1112 10.4048 21.5748 9.8684C21.0384 9.33199 20.1687 9.33199 19.6323 9.8684L12.3621 17.1386L9.21268 13.9891C8.67627 13.4527 7.80657 13.4527 7.27016 13.9891C6.73375 14.5255 6.73375 15.3952 7.27016 15.9316L11.3909 20.0523C11.9273 20.5888 12.797 20.5888 13.3334 20.0523L21.5748 11.8109Z" fill="#181516"/>
<path fill-rule="evenodd" clip-rule="evenodd" d="M15.0388 0.211461C14.1929 -0.0704867 13.2785 -0.0704875 12.4326 0.211461L2.81763 3.41646C1.13497 3.97734 0 5.55203 0 7.32571V17.7078C0 21.9652 2.78832 24.8703 5.58634 26.7078C8.40096 28.5562 11.5064 29.5228 12.7871 29.8722C13.4117 30.0426 14.0597 30.0426 14.6843 29.8722C15.965 29.5228 19.0704 28.5562 21.8851 26.7078C24.6831 24.8703 27.4714 21.9652 27.4714 17.7078V7.32571C27.4714 5.55203 26.3364 3.97734 24.6538 3.41646L15.0388 0.211461ZM13.3013 2.81763C13.5833 2.72364 13.8881 2.72364 14.1701 2.81763L23.785 6.02262C24.3459 6.20959 24.7243 6.73448 24.7243 7.32571V17.7078C24.7243 20.6062 22.8528 22.7858 20.3771 24.4115C17.918 26.0264 15.1359 26.9015 13.9613 27.2219C13.81 27.2632 13.6614 27.2632 13.5101 27.2219C12.3355 26.9015 9.55336 26.0264 7.0943 24.4115C4.61864 22.7858 2.74714 20.6062 2.74714 17.7078V7.32571C2.74714 6.73448 3.12546 6.20959 3.68635 6.02262L13.3013 2.81763Z" fill="#181516"/>
</svg>
