<svg width="31" height="31" viewBox="0 0 31 31" fill="none" xmlns="http://www.w3.org/2000/svg">
<path d="M7.72266 5.64941C7.72266 4.54892 8.15982 3.4935 8.93799 2.71533C9.71616 1.93717 10.7716 1.5 11.8721 1.5H25.3549C25.8998 1.5 26.4394 1.60733 26.9428 1.81586C27.4463 2.02438 27.9037 2.33003 28.289 2.71533C28.6743 3.10064 28.98 3.55807 29.1885 4.0615C29.397 4.56493 29.5043 5.1045 29.5043 5.64941V19.1323C29.5043 19.6772 29.397 20.2168 29.1885 20.7202C28.98 21.2236 28.6743 21.681 28.289 22.0664C27.9037 22.4517 27.4463 22.7573 26.9428 22.9658C26.4394 23.1744 25.8998 23.2817 25.3549 23.2817H11.8721C10.7716 23.2817 9.71616 22.8445 8.93799 22.0664C8.15982 21.2882 7.72266 20.2328 7.72266 19.1323V5.64941Z" stroke="white" stroke-width="3" stroke-linecap="round" stroke-linejoin="round"/>
<path d="M3.07451 8.12793C2.5974 8.39992 2.20055 8.79305 1.92408 9.26758C1.64761 9.74211 1.50132 10.2812 1.5 10.8304V26.3888C1.5 28.1002 2.90025 29.5004 4.61167 29.5004H20.17C21.3369 29.5004 21.9717 28.9014 22.5038 27.9446" stroke="white" stroke-width="3" stroke-linecap="round" stroke-linejoin="round"/>
<path d="M13.9473 7.72363H21.7264" stroke="white" stroke-width="3" stroke-linecap="round" stroke-linejoin="round"/>
<path d="M13.9473 12.3906H23.2823" stroke="white" stroke-width="3" stroke-linecap="round" stroke-linejoin="round"/>
<path d="M13.9473 17.0586H18.6148" stroke="white" stroke-width="3" stroke-linecap="round" stroke-linejoin="round"/>
</svg>
