<svg width="28" height="28" viewBox="0 0 28 28" fill="none" xmlns="http://www.w3.org/2000/svg">
<path fill-rule="evenodd" clip-rule="evenodd" d="M13.3452 0.181373C13.7482 -0.0604576 14.2518 -0.0604576 14.6548 0.181373L27.3821 7.81774C27.7654 8.04775 28 8.46203 28 8.90909V12.7273C28 13.4302 27.4302 14 26.7273 14H25.4545V21.6364H26.7273C27.4302 21.6364 28 22.2062 28 22.9091V26.7273C28 27.4302 27.4302 28 26.7273 28H1.27273C0.569819 28 0 27.4302 0 26.7273V22.9091C0 22.2062 0.569819 21.6364 1.27273 21.6364H2.54545V14H1.27273C0.569819 14 0 13.4302 0 12.7273V8.90909C0 8.46203 0.234562 8.04775 0.617914 7.81774L13.3452 0.181373ZM15.2727 14H17.8182V21.6364H15.2727V14ZM20.3636 21.6364V14H22.9091V21.6364H20.3636ZM7.63636 14H5.09091V21.6364H7.63636V14ZM10.1818 14H12.7273V21.6364H10.1818V14ZM25.4545 10.1818V11.4545H2.54545V10.1818H25.4545ZM5.86768 7.63636L14 2.75697L22.1323 7.63636H5.86768ZM2.54545 24.1818V25.4545H25.4545V24.1818H2.54545Z" fill="white"/>
</svg>
