<svg width="16" height="18" viewBox="0 0 16 18" fill="none" xmlns="http://www.w3.org/2000/svg">
<path d="M0.292894 10.7071C-0.0976306 10.3166 -0.0976307 9.68342 0.292894 9.29289C0.683418 8.90237 1.31658 8.90237 1.70711 9.29289L7 14.5858L7 1C7 0.447715 7.44772 -3.2555e-07 8 -3.49691e-07C8.55229 -3.73832e-07 9 0.447715 9 1L9 14.5858L14.2929 9.29289C14.6834 8.90237 15.3166 8.90237 15.7071 9.29289C16.0976 9.68342 16.0976 10.3166 15.7071 10.7071L8.70711 17.7071C8.31658 18.0976 7.68342 18.0976 7.29289 17.7071L0.292894 10.7071Z" fill="#DC2022"/>
</svg>
