<svg width="28" height="28" viewBox="0 0 28 28" fill="none" xmlns="http://www.w3.org/2000/svg">
<circle cx="14" cy="14" r="14" fill="#181516"/>
<path fill-rule="evenodd" clip-rule="evenodd" d="M13.9992 6C11.3098 6 9.12959 8.18018 9.12959 10.8696C9.12959 13.3228 10.9436 15.3523 13.3035 15.6898V18.5218C13.3035 18.906 13.615 19.2174 13.9992 19.2174C14.3834 19.2174 14.6948 18.906 14.6948 18.5218V15.6898C17.0547 15.3523 18.8687 13.3228 18.8687 10.8696C18.8687 8.18018 16.6886 6 13.9992 6ZM10.5209 10.8696C10.5209 8.94858 12.0782 7.39131 13.9992 7.39131C15.9202 7.39131 17.4774 8.94858 17.4774 10.8696C17.4774 12.7906 15.9202 14.3478 13.9992 14.3478C12.0782 14.3478 10.5209 12.7906 10.5209 10.8696Z" fill="white"/>
<path fill-rule="evenodd" clip-rule="evenodd" d="M11.9995 18.6427C12.3807 18.5944 12.6506 18.2464 12.6024 17.8652C12.5541 17.484 12.2061 17.2141 11.8249 17.2623C10.7659 17.3963 9.82122 17.6297 9.1201 17.9487C8.77119 18.1075 8.4474 18.3032 8.20093 18.5475C7.95238 18.7938 7.73828 19.1369 7.73828 19.5652C7.73828 20.1297 8.10304 20.5395 8.4579 20.8017C8.82636 21.0739 9.31508 21.2898 9.85646 21.459C10.9475 21.7999 12.412 22 13.9992 22C15.5863 22 17.0508 21.7999 18.1419 21.459C18.6832 21.2898 19.172 21.0739 19.5404 20.8017C19.8953 20.5395 20.26 20.1297 20.26 19.5652C20.26 19.1369 20.0459 18.7938 19.7974 18.5475C19.5509 18.3032 19.2271 18.1075 18.8782 17.9487C18.1771 17.6297 17.2324 17.3963 16.1734 17.2623C15.7923 17.2141 15.4442 17.484 15.396 17.8652C15.3478 18.2464 15.6177 18.5944 15.9988 18.6427C16.9794 18.7667 17.7738 18.9747 18.3019 19.2151C18.5677 19.336 18.731 19.4495 18.818 19.5357C18.8294 19.547 18.8387 19.5569 18.8461 19.5655C18.8231 19.5922 18.7828 19.6316 18.7137 19.6827C18.5189 19.8266 18.1926 19.9854 17.7269 20.131C16.8037 20.4195 15.4856 20.6087 13.9992 20.6087C12.5127 20.6087 11.1946 20.4195 10.2714 20.131C9.80571 19.9854 9.47942 19.8266 9.28466 19.6827C9.21556 19.6316 9.17523 19.5922 9.1522 19.5655C9.15967 19.5569 9.1689 19.547 9.18028 19.5357C9.2673 19.4495 9.43067 19.336 9.69638 19.2151C10.2245 18.9747 11.0189 18.7667 11.9995 18.6427ZM18.8748 19.524C18.8748 19.524 18.8743 19.525 18.8736 19.5271C18.8741 19.5261 18.8744 19.5253 18.8746 19.5248C18.8748 19.5243 18.8749 19.524 18.8748 19.524Z" fill="white"/>
</svg>
